<svg width="206" height="48" viewBox="0 0 206 48" fill="none" xmlns="http://www.w3.org/2000/svg">
<path fill-rule="evenodd" clip-rule="evenodd" d="M14.2563 21.437H12.7845L10.4071 12.8574L7.60926 20.3534L7.95698 21.437H6.59847L3.82485 12.8574L1.47172 21.437H0L3.00004 11.1836H4.48793L6.96235 18.5987L9.76832 11.1836H11.24L14.2563 21.437Z" fill="#545353"/>
<path fill-rule="evenodd" clip-rule="evenodd" d="M33.1137 16.9006H27.154V21.437H25.8359V11.1836H27.154V15.6634H33.1137V11.1836H34.4236V21.437H33.1137V16.9006Z" fill="#545353"/>
<path fill-rule="evenodd" clip-rule="evenodd" d="M38.6523 21.437V11.1836H44.2562V12.4208H39.9704V15.6634H43.9489V16.9006H39.9704V20.1998H44.2562V21.437H38.6523Z" fill="#545353"/>
<path fill-rule="evenodd" clip-rule="evenodd" d="M16.7871 21.437V11.1836H22.391V12.4208H18.1052V15.6634H22.0837V16.9006H18.1052V20.1998H22.391V21.437H16.7871Z" fill="#545353"/>
<path fill-rule="evenodd" clip-rule="evenodd" d="M48.1299 11.1839H51.2108C53.1515 11.1839 54.4858 12.2513 54.4858 14.0626C54.4858 15.5424 53.5477 16.3995 52.3429 16.6825C53.5801 17.2566 54.6556 19.0033 55.0356 21.4292H53.6771C53.2 18.882 51.8981 17.1515 50.5396 17.1515H49.456V21.4292H48.138V11.1758L48.1299 11.1839ZM51.2027 12.4211H49.4399V15.9143H51.2027C52.2863 15.9143 53.1192 15.2998 53.1192 14.1839C53.1192 13.068 52.2944 12.4211 51.2027 12.4211Z" fill="#545353"/>
<path fill-rule="evenodd" clip-rule="evenodd" d="M63.5586 21.437V11.1836H64.8767V20.1998H69.1624V21.437H63.5586Z" fill="#545353"/>
<path d="M73.6179 11.1836H72.2998V21.437H73.6179V11.1836Z" fill="#545353"/>
<path fill-rule="evenodd" clip-rule="evenodd" d="M77.8557 11.1839H80.9447C82.7076 11.1839 84.0499 12.2108 84.0499 13.8362C84.0499 14.9925 83.4515 15.7688 82.5782 16.1407C83.6375 16.5208 84.3814 17.3779 84.3814 18.6394C84.3814 20.4022 82.9421 21.4292 81.0741 21.4292H77.8477V11.1758L77.8557 11.1839ZM80.9366 12.4211H79.1738V15.5585H80.9366C81.8827 15.5585 82.6995 15.0734 82.6995 13.9898C82.6995 12.9062 81.8908 12.4211 80.9366 12.4211ZM81.0903 16.7796H79.1738V20.2H81.0903C82.1334 20.2 83.0229 19.6906 83.0229 18.51C83.0229 17.3294 82.1334 16.7796 81.0903 16.7796Z" fill="#545353"/>
<path fill-rule="evenodd" clip-rule="evenodd" d="M87.9639 11.1839H91.0448C92.9855 11.1839 94.3197 12.2513 94.3197 14.0626C94.3197 15.5424 93.3898 16.3995 92.1769 16.6825C93.4141 17.2566 94.4896 19.0033 94.8696 21.4292H93.5111C93.034 18.882 91.7321 17.1515 90.3736 17.1515H89.29V21.4292H87.972V11.1758L87.9639 11.1839ZM91.0367 12.4211H89.2739V15.9143H91.0367C92.1203 15.9143 92.9531 15.2998 92.9531 14.1839C92.9531 13.068 92.1283 12.4211 91.0367 12.4211Z" fill="#545353"/>
<path fill-rule="evenodd" clip-rule="evenodd" d="M109.465 11.1839H112.546C114.486 11.1839 115.821 12.2513 115.821 14.0626C115.821 15.5424 114.883 16.3995 113.678 16.6825C114.915 17.2566 115.991 19.0033 116.371 21.4292H115.004C114.527 18.882 113.225 17.1515 111.866 17.1515H110.783V21.4292H109.465V11.1758V11.1839ZM112.546 12.4211H110.783V15.9143H112.546C113.629 15.9143 114.462 15.2998 114.462 14.1839C114.462 13.068 113.637 12.4211 112.546 12.4211Z" fill="#545353"/>
<path fill-rule="evenodd" clip-rule="evenodd" d="M121.611 16.9006L118.166 11.1836H119.662L122.266 15.5987L124.886 11.1836H126.398L122.921 16.9167V21.437H121.611V16.9006Z" fill="#545353"/>
<path fill-rule="evenodd" clip-rule="evenodd" d="M135.964 15.2268L135.891 15.1378C135.446 14.596 135.018 13.9491 135.018 13.2537C135.018 12.0327 136.029 11.0381 137.468 11.0381C138.98 11.0381 139.813 12.1216 139.813 13.2699C139.813 14.5394 138.883 15.154 137.791 15.6634L139.845 18.0893L142.344 15.3157V17.0785L140.63 19.0192L142.667 21.4289H141.058L139.837 19.933C138.98 20.7901 137.848 21.5745 136.514 21.5745C134.266 21.5745 133.255 19.9653 133.255 18.5745C133.255 16.6419 134.613 15.8171 135.98 15.2106L135.964 15.2268ZM139.045 18.995L136.7 16.1324C135.568 16.6419 134.557 17.2483 134.557 18.526C134.557 19.3669 135.228 20.3777 136.498 20.3777C137.419 20.3777 138.317 19.7308 139.037 18.9869L139.045 18.995ZM137.039 14.7739C137.896 14.3939 138.568 14.0057 138.568 13.3103C138.568 12.7685 138.204 12.1782 137.484 12.1782C136.764 12.1782 136.271 12.6634 136.271 13.3103C136.271 13.7793 136.667 14.2888 136.975 14.685L137.039 14.7739Z" fill="#545353"/>
<path fill-rule="evenodd" clip-rule="evenodd" d="M102.502 11.1836H101.014L97.1006 21.437H98.5804L101.75 12.8898L104.936 21.437H106.424L102.502 11.1836Z" fill="#545353"/>
<path fill-rule="evenodd" clip-rule="evenodd" d="M40.375 26.5637H43.4559C45.3966 26.5637 46.7309 27.6311 46.7309 29.4425C46.7309 30.9222 45.8009 31.7794 44.588 32.0624C45.8252 32.6365 46.9007 34.3832 47.2808 36.809H45.9222C45.4451 34.2619 44.1432 32.5314 42.7847 32.5314H41.7012V36.809H40.3831V26.5557L40.375 26.5637ZM43.4559 27.8009H41.6931V31.2942H43.4559C44.5395 31.2942 45.3724 30.6797 45.3724 29.5638C45.3724 28.4478 44.5476 27.8009 43.4559 27.8009Z" fill="#545353"/>
<path fill-rule="evenodd" clip-rule="evenodd" d="M33.4124 26.5635H31.9245L28.0107 36.8088H29.4905L32.6604 28.2616L35.8464 36.8088H37.3262L33.4124 26.5635Z" fill="#545353"/>
<path fill-rule="evenodd" clip-rule="evenodd" d="M5.57163 26.5635V33.7522C5.57163 35.8303 4.56084 36.9624 2.5716 36.9624C1.6821 36.9624 0.824943 36.6309 0.428711 36.3155V34.8357C0.962411 35.3371 1.59315 35.6929 2.41796 35.6929C3.50153 35.6929 4.25356 35.046 4.25356 33.7198V26.5635H5.57163Z" fill="#545353"/>
<path fill-rule="evenodd" clip-rule="evenodd" d="M22.0915 32.6767V36.8088H20.7734V26.5635H26.3773V27.8007H22.0915V31.4476H26.07V32.6767H22.0915Z" fill="#545353"/>
<path d="M52.0192 26.5635H50.7012V36.8168H52.0192V26.5635Z" fill="#545353"/>
<path fill-rule="evenodd" clip-rule="evenodd" d="M66.2842 28.4312C65.7181 27.9945 64.8933 27.6306 64.02 27.6306C62.8879 27.6306 62.2005 28.2048 62.2005 29.0619C62.2005 29.5875 62.5078 30.008 63.1628 30.4204L64.9661 31.5363C66.2518 32.3368 66.7289 33.105 66.7289 34.1724C66.7289 35.636 65.6453 36.9622 63.4378 36.9622C62.3784 36.9622 61.4809 36.6468 60.8825 36.3476V34.8274C61.4323 35.2802 62.3218 35.7492 63.4054 35.7492C64.6588 35.7492 65.33 35.0376 65.33 34.2452C65.33 33.7034 64.9661 33.2021 64.1979 32.7411L62.4027 31.6252C61.2059 30.9056 60.7773 30.1293 60.7773 29.1104C60.7773 27.8004 61.683 26.4258 64.0361 26.4258C64.9418 26.4258 65.7181 26.6684 66.268 26.9837V28.4473L66.2842 28.4312Z" fill="#545353"/>
<path fill-rule="evenodd" clip-rule="evenodd" d="M70.2539 36.8088V26.5635H75.8497V27.8007H71.5639V31.0352H75.5505V32.2724H71.5639V35.5716H75.8497V36.8088H70.2539Z" fill="#545353"/>
<path fill-rule="evenodd" clip-rule="evenodd" d="M92.92 36.8088H91.4564L89.079 28.2373L86.2811 35.7252L86.6288 36.8088H85.2703L82.4967 28.2373L80.1355 36.8088H78.6719L81.6719 26.5635H83.1517L85.6342 33.9786L88.4402 26.5635H89.9038L92.92 36.8088Z" fill="#545353"/>
<path d="M97.4079 26.5635H96.0898V36.8168H97.4079V26.5635Z" fill="#545353"/>
<path fill-rule="evenodd" clip-rule="evenodd" d="M103.028 29.4584V36.8088H101.71V27.7198L100.99 26.6686V26.5635H102.583L108.551 34.577V26.5635H109.869V36.8088H108.551L103.028 29.4584Z" fill="#545353"/>
<path fill-rule="evenodd" clip-rule="evenodd" d="M125.298 26.5637H128.371C130.311 26.5637 131.646 27.6311 131.646 29.4425C131.646 30.9222 130.708 31.7794 129.503 32.0624C130.74 32.6365 131.815 34.3832 132.196 36.809H130.837C130.36 34.2619 129.058 32.5314 127.7 32.5314H126.616V36.809H125.298V26.5557V26.5637ZM128.379 27.8009H126.616V31.2942H128.379C129.462 31.2942 130.295 30.6797 130.295 29.5638C130.295 28.4478 129.47 27.8009 128.379 27.8009Z" fill="#545353"/>
<path fill-rule="evenodd" clip-rule="evenodd" d="M137.436 32.2724L133.991 26.5635H135.495L138.099 30.9786L140.711 26.5635H142.231L138.754 32.2885V36.8088H137.436V32.2724Z" fill="#545353"/>
<path fill-rule="evenodd" clip-rule="evenodd" d="M13.8031 26.5635H12.3233L8.40137 36.8088H9.88926L13.0591 28.2616L16.237 36.8088H17.7249L13.8031 26.5635Z" fill="#545353"/>
<path fill-rule="evenodd" clip-rule="evenodd" d="M118.336 26.5635H116.848L112.926 36.8088H114.414L117.584 28.2616L120.77 36.8088H122.249L118.336 26.5635Z" fill="#545353"/>
<path fill-rule="evenodd" clip-rule="evenodd" d="M179.611 25.1C177.978 25.1 176.66 23.7981 176.66 22.1889C176.66 21.4935 176.911 20.8547 177.315 20.3534L177.283 20.3291C176.078 20.693 175.196 21.8008 175.196 23.1108C175.196 24.7199 176.522 26.0218 178.148 26.0218C179.053 26.0218 179.862 25.6175 180.404 24.9868C180.145 25.0596 179.878 25.1 179.603 25.1H179.611Z" fill="#1476BD"/>
<path fill-rule="evenodd" clip-rule="evenodd" d="M180.057 48.0003H188.531C190.601 48.0003 192.518 46.9086 193.553 45.1458L205.949 24.0003L199.804 13.5205C182.782 24.5016 180.057 48.0003 180.057 48.0003Z" fill="#00B0AB"/>
<path fill-rule="evenodd" clip-rule="evenodd" d="M175.641 48.0003C175.641 48.0003 172.916 24.4936 155.894 13.5205L149.668 24.0003L162.064 45.1458C163.099 46.9167 165.016 48.0003 167.086 48.0003H175.641Z" fill="#00B0AB"/>
<path fill-rule="evenodd" clip-rule="evenodd" d="M185.766 0H188.531C190.601 0 192.518 1.09164 193.553 2.85445L197.556 9.59838C194.224 11.7493 191.442 14.3693 189.121 17.2075C187.69 13.1159 185.952 7.14825 185.766 0Z" fill="#1476BD"/>
<path fill-rule="evenodd" clip-rule="evenodd" d="M169.471 0C169.302 6.94609 167.676 12.8895 166.293 16.965C164.013 14.2237 161.296 11.6846 158.062 9.59838L162.064 2.85445C163.099 1.09164 165.016 0 167.086 0H169.471Z" fill="#1476BD"/>
</svg>
